<svg t="1705200499074" class="icon" viewBox="0 0 1058 1024" version="1.1" xmlns="http://www.w3.org/2000/svg" p-id="5262" width="200" height="200"><path d="M531.354 778.377c-143.36 0-262.827-116.054-262.827-262.827 0-68.267 27.307-136.533 75.093-184.32 47.787-51.2 116.054-78.507 184.32-78.507h3.414c143.36 0 262.826 116.054 262.826 262.827 0 143.36-119.466 262.827-262.826 262.827zM527.94 320.99c-51.2 0-98.986 20.48-136.533 58.027-34.133 37.546-54.613 85.333-54.613 136.533 0 105.813 88.746 194.56 194.56 194.56s194.56-88.747 194.56-194.56-88.747-194.56-197.974-194.56zM131.994 788.617c-10.24 0-23.894-6.827-30.72-17.067-47.787-78.507-71.68-163.84-71.68-256s23.893-180.907 71.68-259.413c10.24-17.067 30.72-20.48 47.786-10.24 17.067 10.24 20.48 30.72 10.24 47.786-40.96 68.267-64.853 146.774-64.853 225.28s23.893 153.6 64.853 221.867c10.24 17.067 3.414 37.547-10.24 47.787h-17.066z m399.36 232.106c-88.747 0-177.494-23.893-256-71.68-17.067-10.24-20.48-30.72-10.24-47.786 10.24-17.067 30.72-20.48 47.786-10.24 136.534 81.92 307.2 81.92 443.734 0 17.066-10.24 37.546-3.414 47.786 10.24 10.24 17.066 3.414 37.546-10.24 47.786-85.333 47.787-174.08 71.68-262.826 71.68z m402.773-232.106c-6.827 0-13.653 0-17.067-3.414-17.066-10.24-20.48-30.72-10.24-47.786 81.92-136.534 81.92-307.2 0-447.147-10.24-17.067-3.413-37.547 10.24-47.787 17.067-10.24 37.547-3.413 47.787 10.24 95.573 160.427 95.573 354.987 0 515.414-6.827 13.653-20.48 20.48-30.72 20.48z m-163.84-638.294c-6.827 0-13.653 0-17.067-3.413-68.266-40.96-143.36-61.44-221.866-64.853h-3.414c-78.506 0-153.6 23.893-218.453 64.853-17.067 6.827-37.547 0-47.787-13.653s-6.826-37.547 10.24-47.787c75.094-47.787 163.84-71.68 252.587-71.68h6.827c92.16 0 180.906 27.307 259.413 71.68 17.067 10.24 20.48 30.72 10.24 47.787-6.827 10.24-17.067 17.066-30.72 17.066z" fill="#4472C4" p-id="5263"></path><path d="M667.887 239.07c-3.413 0-10.24 0-13.653-3.413-40.96-17.067-81.92-27.307-126.294-27.307-40.96 0-81.92 10.24-119.466 27.307-17.067 6.826-37.547 0-44.374-17.067-10.24-17.067-3.413-37.547 13.654-47.787 47.786-20.48 98.986-30.72 150.186-30.72h3.414c51.2 0 105.813 10.24 153.6 34.134 17.066 6.826 23.893 27.306 17.066 44.373-6.826 10.24-20.48 20.48-34.133 20.48zM220.74 689.63c-13.653 0-27.306-6.827-30.72-20.48-20.48-47.787-30.72-98.987-30.72-150.187 0-54.613 10.24-102.4 30.72-153.6 6.827-17.066 27.307-23.893 44.374-17.066 17.066 6.826 23.893 27.306 17.066 44.373-17.066 40.96-27.306 81.92-27.306 126.293 0 44.374 10.24 85.334 27.306 122.88 6.827 17.067 0 37.547-17.066 44.374-6.827 0-10.24 3.413-13.654 3.413z m307.2 197.973c-51.2 0-102.4-10.24-150.186-30.72-17.067-6.826-23.894-27.306-17.067-44.373 6.827-17.067 27.307-23.893 44.373-17.067 37.547 17.067 81.92 27.307 126.294 27.307 44.373 0 85.333-10.24 122.88-27.307 17.066-6.826 37.546 0 44.373 17.067 6.827 17.067 0 37.547-17.067 44.373-47.786 20.48-98.986 30.72-150.186 30.72h-3.414zM841.967 689.63c-3.413 0-10.24 0-13.653-3.413-17.067-6.827-23.894-27.307-17.067-44.374 17.067-37.546 27.307-81.92 27.307-126.293 0-44.373-10.24-85.333-27.307-126.293-6.827-17.067 0-37.547 17.067-44.374 17.066-6.826 37.546 0 44.373 17.067 20.48 47.787 30.72 98.987 30.72 153.6 0 51.2-10.24 105.813-30.72 153.6-6.827 13.653-17.067 20.48-30.72 20.48z m-310.613-47.787c-68.267 0-126.294-54.613-126.294-122.88 0-51.2 30.72-98.986 75.094-119.466 47.786-20.48 102.4-10.24 139.946 27.306 37.547 37.547 47.787 88.747 27.307 136.534-17.067 47.786-64.853 78.506-116.053 78.506zM473.327 515.55c0 30.72 27.307 58.027 58.027 58.027 23.893 0 44.373-13.654 54.613-37.547 10.24-20.48 3.413-47.787-13.653-64.853s-40.96-20.48-64.854-10.24c-20.48 10.24-34.133 30.72-34.133 54.613z" fill="#4472C4" p-id="5264"></path></svg>
